<svg xmlns="http://www.w3.org/2000/svg" viewBox="0 0 512 512"><defs><style>.cls-1{fill:#2f80ed;}.cls-2{fill:#fff;}</style></defs><g id="Layer_2" data-name="Layer 2"><g id="Layer_2-2" data-name="Layer 2"><rect class="cls-1" width="512" height="512" rx="125"/></g><g id="Layer_1-2" data-name="Layer 1"><path class="cls-2" d="M424.8,360.3,381.7,177.7a44.9,44.9,0,0,0-35.3-34h-.9a9.8,9.8,0,0,1-8.8-9.4h0c-1.9-42.9-36.9-77.8-80.2-78a80.8,80.8,0,0,0-81.2,77.6v.3a9.8,9.8,0,0,1-8.8,9.5l-1.3.2a44.9,44.9,0,0,0-34.9,33.9L87.2,360.3a45.3,45.3,0,0,0,8.4,38.3,46.2,46.2,0,0,0,36.3,17.2H380.8a45.2,45.2,0,0,0,44-55.5ZM205.6,137a50.5,50.5,0,0,1,51.2-50.4c27.6.4,49.6,23.5,49.6,51.1h0a5.2,5.2,0,0,1-5.2,5.2H210.8a5.2,5.2,0,0,1-5.2-5.2ZM120,380.2a14.7,14.7,0,0,1-3.2-12.9l43.1-182.6a14.7,14.7,0,0,1,14.3-11.4h72.7a9.1,9.1,0,0,1,9.1,9.1v56.7a9.1,9.1,0,0,1-9.1,9.1h-24V237a9.1,9.1,0,0,0-13.7-7.9l-45.8,26.4a9.1,9.1,0,0,0,0,15.8l45.8,26.4a9.1,9.1,0,0,0,13.7-7.8V278.6h66.2v-9.7a9.1,9.1,0,0,1,13.7-7.9l45.8,26.4a9.1,9.1,0,0,1,0,15.8l-45.8,26.4a9.1,9.1,0,0,1-13.7-7.8V309.1h-24a9.1,9.1,0,0,0-9.1,9.1v58.1a9.1,9.1,0,0,1-9.1,9.1H131.5A14.8,14.8,0,0,1,120,380.2Z"/></g></g></svg>